#!OML:ASF C:\Vicon Data\Big\jianyuan-12\jianyuan\Session 1\Capture.male.ASF
:FULLY-SPECIFIED
:DEGREES
181
root -6.814008 17.202051 -9.403669 5.826003 1.695327 8.024771
lowerback -10.637819 0.314601 -9.481066 
upperback 1.806379 1.829832 -2.849402 
thorax 7.742120 0.498358 2.597125 
lowerneck -4.530893 -5.364183 -5.693810 
upperneck 6.141354 -7.367786 7.516871 
head 3.390925 -3.567051 3.189391 
rclavicle 0.000000 0.000000 
rhumerus -40.021639 -31.439235 -75.094464 
rradius 32.236510 
rwrist 40.705786 
rhand -18.545834 -4.566289 
rfingers 0.000000 
rthumb 7.743516 -34.404534 
lclavicle 0.000000 0.000000 
lhumerus -34.089852 30.457534 76.677943 
lradius 29.224462 
lwrist -47.292097 
lhand -8.944371 4.982676 
lfingers 0.000000 
lthumb 17.000037 34.258766 
rfemur -22.296021 -11.108713 8.237764 
rtibia 73.110672 
rfoot -11.912785 -13.453445 
rtoes -2.124897 
lfemur -16.653648 -2.818228 -32.367455 
ltibia 21.397447 
lfoot -17.449122 4.436536 
ltoes -15.991398 
182
root -6.797570 17.202312 -9.342585 5.785423 1.679999 8.005074
lowerback -10.540771 0.247515 -9.463066 
upperback 1.820843 1.724901 -2.798320 
thorax 7.712635 0.448716 2.622899 
lowerneck -4.452775 -5.328519 -5.600319 
upperneck 6.017222 -7.305865 7.336210 
head 3.312890 -3.541326 3.113602 
rclavicle 0.000000 0.000000 
rhumerus -40.348019 -31.905563 -74.609875 
rradius 32.018503 
rwrist 41.224874 
rhand -18.602880 -4.379476 
rfingers 0.000000 
rthumb 7.688450 -34.219687 
lclavicle 0.000000 0.000000 
lhumerus -33.728173 30.469764 76.889328 
lradius 29.176465 
lwrist -47.706779 
lhand -9.080598 4.718711 
lfingers 0.000000 
lthumb 16.868885 34.006020 
rfemur -23.055788 -11.125644 8.354215 
rtibia 73.419442 
rfoot -12.117492 -13.240704 
rtoes -2.785555 
lfemur -16.345275 -2.787036 -32.417338 
ltibia 21.341345 
lfoot -17.638542 4.390223 
ltoes -16.421402 
183
root -6.782853 17.202414 -9.280553 5.728276 1.714760 7.953056
lowerback -10.414976 0.162050 -9.396228 
upperback 1.825692 1.585915 -2.770315 
thorax 7.661648 0.386290 2.591067 
lowerneck -4.434232 -5.271995 -5.560523 
upperneck 6.014283 -7.228567 7.280287 
head 3.297273 -3.504077 3.091329 
rclavicle 0.000000 0.000000 
rhumerus -40.615856 -32.058898 -74.391331 
rradius 31.908750 
rwrist 41.196933 
rhand -18.649656 -4.453094 
rfingers 0.000000 
rthumb 7.643314 -34.294982 
lclavicle 0.000000 0.000000 
lhumerus -33.418890 30.437156 77.007052 
lradius 29.227581 
lwrist -48.146740 
lhand -9.097323 4.491144 
lfingers 0.000000 
lthumb 16.852754 33.779856 
rfemur -23.741008 -11.089117 8.531893 
rtibia 73.658450 
rfoot -12.294469 -13.027061 
rtoes -3.548742 
lfemur -16.016963 -2.748720 -32.427280 
ltibia 21.298087 
lfoot -17.778347 4.327381 
ltoes -17.296959 
184
root -6.767807 17.204235 -9.219297 5.725884 1.734634 7.919227
lowerback -10.351398 0.082353 -9.349700 
upperback 1.831700 1.465395 -2.745589 
thorax 7.645336 0.330278 2.571160 
lowerneck -4.475931 -5.228761 -5.573337 
upperneck 6.044813 -7.170331 7.290385 
head 3.312690 -3.474191 3.099689 
rclavicle 0.000000 0.000000 
rhumerus -40.853537 -32.144683 -74.249929 
rradius 31.877266 
rwrist 40.956382 
rhand -18.659601 -4.542843 
rfingers 0.000000 
rthumb 7.633746 -34.385044 
lclavicle 0.000000 0.000000 
lhumerus -32.992756 30.210109 77.273591 
lradius 29.290658 
lwrist -48.096253 
lhand -9.185135 4.325760 
lfingers 0.000000 
lthumb 16.768220 33.621622 
rfemur -24.508282 -11.033213 8.686284 
rtibia 73.849850 
rfoot -12.493640 -12.833520 
rtoes -3.941801 
lfemur -15.772701 -2.795183 -32.447403 
ltibia 21.293883 
lfoot -18.000597 4.286531 
ltoes -16.881807 
185
root -6.753982 17.204978 -9.157893 5.715344 1.781934 7.858807
lowerback -10.260328 -0.004239 -9.306078 
upperback 1.815130 1.329801 -2.696113 
thorax 7.589550 0.268762 2.576771 
lowerneck -4.424081 -5.177312 -5.658948 
upperneck 6.053693 -7.104692 7.369442 
head 3.309730 -3.442560 3.148162 
rclavicle 0.000000 0.000000 
rhumerus -41.146361 -32.209208 -74.063137 
rradius 31.864712 
rwrist 40.746701 
rhand -18.600099 -4.569948 
rfingers 0.000000 
rthumb 7.691127 -34.410074 
lclavicle 0.000000 0.000000 
lhumerus -32.631886 29.862574 77.568687 
lradius 29.382601 
lwrist -47.940986 
lhand -9.260055 4.200984 
lfingers 0.000000 
lthumb 16.696082 33.503004 
rfemur -25.238357 -10.960097 8.873620 
rtibia 73.992789 
rfoot -12.683665 -12.612563 
rtoes -4.318455 
lfemur -15.523721 -2.870625 -32.427557 
ltibia 21.312513 
lfoot -18.271043 4.225247 
ltoes -16.652001 
186
root -6.741288 17.203565 -9.096628 5.708665 1.832942 7.816187
lowerback -10.182823 -0.085201 -9.305105 
upperback 1.815676 1.209780 -2.637355 
thorax 7.557840 0.211217 2.618718 
lowerneck -4.397904 -5.138658 -5.601625 
upperneck 6.042544 -7.051125 7.297069 
head 3.289870 -3.417287 3.115531 
rclavicle 0.000000 0.000000 
rhumerus -41.403453 -32.212840 -73.888918 
rradius 31.892520 
rwrist 40.471668 
rhand -18.472115 -4.610741 
rfingers 0.000000 
rthumb 7.814668 -34.446272 
lclavicle 0.000000 0.000000 
lhumerus -32.203754 29.655394 77.924045 
lradius 29.408812 
lwrist -47.804692 
lhand -9.358807 4.247038 
lfingers 0.000000 
lthumb 16.601021 33.557019 
rfemur -25.971485 -10.877941 9.054326 
rtibia 74.100273 
rfoot -13.065124 -12.435870 
rtoes -4.847709 
lfemur -15.290579 -2.893256 -32.427424 
ltibia 21.347038 
lfoot -18.515276 4.150764 
ltoes -16.565994 
187
root -6.728433 17.200661 -9.037186 5.732635 1.905614 7.784963
lowerback -10.142910 -0.198518 -9.306595 
upperback 1.830743 1.052231 -2.564423 
thorax 7.567894 0.133014 2.671452 
lowerneck -4.449181 -5.067679 -5.762672 
upperneck 6.086195 -6.951919 7.393111 
head 3.320806 -3.367717 3.184124 
rclavicle 0.000000 0.000000 
rhumerus -41.582338 -32.224777 -73.749585 
rradius 31.858431 
rwrist 40.449900 
rhand -18.436992 -4.678891 
rfingers 0.000000 
rthumb 7.848566 -34.513245 
lclavicle 0.000000 0.000000 
lhumerus -31.766993 29.539548 78.264523 
lradius 29.493822 
lwrist -47.720398 
lhand -9.439414 4.354629 
lfingers 0.000000 
lthumb 16.523435 33.671057 
rfemur -26.760947 -10.885425 9.207979 
rtibia 74.184787 
rfoot -13.121911 -12.205468 
rtoes -4.713167 
lfemur -15.119630 -2.992834 -32.432886 
ltibia 21.416489 
lfoot -18.782736 4.091735 
ltoes -16.575177 
188
root -6.718830 17.199087 -8.976146 5.727465 1.996281 7.758720
lowerback -10.059966 -0.295621 -9.347427 
upperback 1.840381 0.915591 -2.498690 
thorax 7.545133 0.064701 2.741549 
lowerneck -4.479740 -5.036714 -5.851234 
upperneck 6.121541 -6.904426 7.397498 
head 3.340015 -3.345156 3.204576 
rclavicle 0.000000 0.000000 
rhumerus -41.835918 -32.215717 -73.556639 
rradius 31.841594 
rwrist 40.538299 
rhand -18.469044 -4.625774 
rfingers 0.000000 
rthumb 7.817646 -34.461258 
lclavicle 0.000000 0.000000 
lhumerus -31.350025 29.510197 78.496357 
lradius 29.483765 
lwrist -47.852373 
lhand -9.382917 4.157272 
lfingers 0.000000 
lthumb 16.577822 33.469168 
rfemur -27.497418 -10.872792 9.370880 
rtibia 74.212597 
rfoot -13.246802 -11.949728 
rtoes -4.889399 
lfemur -14.905337 -3.106264 -32.430645 
ltibia 21.495312 
lfoot -19.035469 4.010602 
ltoes -16.442817 
189
root -6.708191 17.196989 -8.917023 5.741807 2.065887 7.716888
lowerback -9.998556 -0.380011 -9.357054 
upperback 1.852812 0.794841 -2.429682 
thorax 7.536458 0.004841 2.800630 
lowerneck -4.469572 -5.017568 -5.880826 
upperneck 6.082447 -6.868171 7.331268 
head 3.319651 -3.329850 3.189093 
rclavicle 0.000000 0.000000 
rhumerus -42.135936 -32.447686 -73.210562 
rradius 31.773490 
rwrist 41.090823 
rhand -18.580557 -4.542155 
rfingers 0.000000 
rthumb 7.709999 -34.381619 
lclavicle 0.000000 0.000000 
lhumerus -30.898564 29.310028 78.840338 
lradius 29.539310 
lwrist -47.683074 
lhand -9.391659 4.192536 
lfingers 0.000000 
lthumb 16.569423 33.505148 
rfemur -28.270831 -10.801662 9.559812 
rtibia 74.197075 
rfoot -13.377361 -11.680147 
rtoes -5.012752 
lfemur -14.718976 -3.121725 -32.422946 
ltibia 21.546345 
lfoot -19.242581 3.894757 
ltoes -16.307696 
190
root -6.695679 17.195981 -8.851488 5.800766 2.144015 7.676313
lowerback -10.035259 -0.453861 -9.326758 
upperback 1.848588 0.695622 -2.397384 
thorax 7.564487 -0.043366 2.802348 
lowerneck -4.419324 -5.021468 -5.753043 
upperneck 6.038069 -6.872293 7.210650 
head 3.281993 -3.333550 3.123369 
rclavicle 0.000000 0.000000 
rhumerus -42.413044 -32.554774 -73.013928 
rradius 31.779085 
rwrist 41.041144 
rhand -18.580202 -4.550288 
rfingers 0.000000 
rthumb 7.710356 -34.389704 
lclavicle 0.000000 0.000000 
lhumerus -30.483849 29.067421 79.111522 
lradius 29.621757 
lwrist -47.553517 
lhand -9.260857 4.156423 
lfingers 0.000000 
lthumb 16.695339 33.458478 
rfemur -29.022858 -10.763241 9.724997 
rtibia 74.112307 
rfoot -13.537957 -11.410243 
rtoes -5.078367 
lfemur -14.544659 -3.084211 -32.434522 
ltibia 21.591988 
lfoot -19.443635 3.734839 
ltoes -16.381458 
191
root -6.681187 17.192395 -8.784299 5.794871 2.147838 7.712125
lowerback -10.020241 -0.508856 -9.344182 
upperback 1.862262 0.623546 -2.395639 
thorax 7.579271 -0.080219 2.801966 
lowerneck -4.442368 -4.999956 -5.685249 
upperneck 6.077863 -6.841936 7.119266 
head 3.289538 -3.318864 3.079924 
rclavicle 0.000000 0.000000 
rhumerus -42.679806 -32.563693 -72.900264 
rradius 31.842092 
rwrist 40.870782 
rhand -18.540657 -4.527003 
rfingers 0.000000 
rthumb 7.748548 -34.365050 
lclavicle 0.000000 0.000000 
lhumerus -30.050764 28.827317 79.370167 
lradius 29.674018 
lwrist -47.471099 
lhand -9.194115 4.061282 
lfingers 0.000000 
lthumb 16.759573 33.357929 
rfemur -29.699209 -10.675364 9.779324 
rtibia 73.966472 
rfoot -13.677164 -11.056678 
rtoes -5.324761 
lfemur -14.280380 -3.065034 -32.544597 
ltibia 21.625248 
lfoot -19.691758 3.672685 
ltoes -16.493666 
